<svg height="93.16010491884947" version="1.1" width="441.0642622070312" xmlns="http://www.w3.org/2000/svg" xmlns:xlink="http://www.w3.org/1999/xlink" style="overflow: hidden; position: relative; left: -0.6px; top: -0.8px;" viewBox="87.55700000000002 80.83909923706054 441.0642622070312 93.16010491884947" preserveAspectRatio="xMinYMin" id="main_svg"><desc style="-webkit-tap-highlight-color: rgba(0, 0, 0, 0);">Created with Logotizer</desc><defs style="-webkit-tap-highlight-color: rgba(0, 0, 0, 0);"></defs><path fill="#ffffff" stroke="none" d="M-113.98,-18.8Q-113.98,-26.74,-108.35,-32.37Q-102.73,-37.99,-94.78,-37.99Q-86.84,-37.99,-81.21,-32.37Q-75.59,-26.74,-75.59,-18.8Q-75.59,-10.85,-81.21,-5.23Q-86.84,0.4,-94.78,0.4Q-102.73,0.4,-108.35,-5.23Q-113.98,-10.85,-113.98,-18.8M-109.08,-18.8Q-109.08,-12.87,-104.88,-8.67Q-100.69,-4.48,-94.78,-4.48Q-88.85,-4.48,-84.67,-8.67Q-80.48,-12.87,-80.48,-18.8Q-80.48,-24.73,-84.67,-28.91Q-88.85,-33.09,-94.78,-33.09Q-100.71,-33.09,-104.89,-28.91Q-109.08,-24.73,-109.08,-18.8ZM-69.12,0L-69.12,-24.12L-64.24,-24.12L-64.24,-21.3Q-62.72,-25.43,-58.13,-25.43Q-54.21,-25.43,-51.9,-22.65Q-49.59,-19.88,-49.52,-15.68L-49.52,0L-54.38,0L-54.38,-15.49Q-54.38,-17.58,-55.9,-19.07Q-57.42,-20.55,-59.53,-20.55Q-61.62,-20.55,-63.14,-19.1Q-63.98,-18.23,-64.24,-17.65L-64.24,0L-69.12,0ZM-42.42,0L-42.42,-37.52L-37.55,-37.52L-37.55,0L-42.42,0ZM-32.27,-24.12L-26.81,-24.12L-20.7,-10.92L-14.58,-24.12L-9.14,-24.12L-24.59,8.11L-29.72,8.11L-23.3,-5.37L-32.27,-24.12ZM-3.82,0L-3.82,-37.5L6.82,-37.5Q11.34,-36.89,14.46,-33.77Q18.19,-30.02,18.19,-24.77Q18.19,-19.48,14.46,-15.74Q10.73,-12,5.46,-12L1.03,-12L1.03,0L-3.82,0M1.03,-16.88L5.46,-16.88Q8.7,-16.88,11,-19.18Q13.31,-21.49,13.31,-24.77Q13.31,-28.03,11,-30.33Q8.7,-32.63,5.46,-32.63L1.03,-32.63L1.03,-16.88ZM21.59,-30.63Q21.59,-32.06,22.59,-33.05Q23.6,-34.03,24.98,-34.03Q26.39,-34.03,27.4,-33.05Q28.41,-32.06,28.41,-30.63Q28.41,-29.2,27.4,-28.22Q26.39,-27.23,24.98,-27.23Q23.6,-27.23,22.59,-28.22Q21.59,-29.2,21.59,-30.63M22.57,0L22.57,-24.12L27.42,-24.12L27.42,0L22.57,0ZM34.85,0L45.82,-19.27L35.91,-19.27L35.91,-24.12L54.19,-24.12L43.2,-4.88L53.95,-4.88L53.95,0L34.85,0ZM61.22,0L72.19,-19.27L62.27,-19.27L62.27,-24.12L80.55,-24.12L69.56,-4.88L80.32,-4.88L80.32,0L61.22,0ZM87,-12.7Q87,-18.23,90.9,-22.14Q94.8,-26.04,100.34,-26.04Q104.98,-26.04,108.49,-22.43L108.49,-24.12L113.37,-24.12L113.37,0.02L108.49,0.02L108.49,-3Q104.98,0.63,100.34,0.63Q94.8,0.63,90.9,-3.27Q87,-7.17,87,-12.7M91.97,-12.7Q91.97,-9.26,94.42,-6.81Q96.87,-4.36,100.34,-4.36Q103.78,-4.36,106.24,-6.8Q108.07,-8.65,108.49,-10.92L108.49,-14.48Q108.07,-16.76,106.24,-18.61Q103.78,-21.05,100.34,-21.05Q96.87,-21.05,94.42,-18.61Q91.97,-16.17,91.97,-12.7Z" transform="matrix(1,0,0,1,289.5,128.0391)" style="-webkit-tap-highlight-color: rgba(0, 0, 0, 0);" stroke-width="1"></path><path fill="#e0b057" stroke="none" d="M118.37,99.935A72.061,72.061,0,0,1,41.63000000000001,99.935L37.55700000000001,106.825A80.07,80.07,0,0,0,122.44200000000001,106.825ZM116.844,97.35L80,35L43.156,97.35A69.058,69.058,0,0,0,116.844,97.35ZM90,69A3,3,0,1,1,87,72A3,3,0,0,1,90,69ZM91,86A7,7,0,1,1,84,93A7,7,0,0,1,91,86ZM77,55A5,5,0,1,1,72,60A5,5,0,0,1,77,55ZM62,98A3,3,0,1,1,65,95A3,3,0,0,1,62,98ZM73,84A5,5,0,1,1,78,79A5,5,0,0,1,73,84Z" stroke-width="0" opacity="1" transform="matrix(1,0,0,1,50,55)" style="-webkit-tap-highlight-color: rgba(0, 0, 0, 0); opacity: 1;"></path><path fill="#ffffff" stroke="none" d="M-256.71,-32.93Q-256.71,-32.11,-257.86,-32.11Q-258.87,-32.11,-259.49,-29.66L-265.49,-4.42Q-265.78,-3.12,-265.78,-2.88Q-265.78,-1.78,-264.96,-1.78Q-264.2,-1.78,-264.2,-1.25Q-264.2,0,-266.4,0L-271.35,0Q-272.84,0,-272.84,-0.96Q-272.84,-1.78,-271.68,-1.78Q-270.63,-1.78,-270,-4.32L-266.98,-16.99L-282.05,-16.99L-285.08,-4.32Q-285.32,-3.36,-285.32,-2.88Q-285.32,-1.78,-284.5,-1.78Q-283.73,-1.78,-283.73,-1.25Q-283.73,0,-285.94,0L-290.88,0Q-292.37,0,-292.37,-0.96Q-292.37,-1.78,-291.22,-1.78Q-290.12,-1.78,-289.54,-4.32L-283.54,-29.57Q-283.3,-30.53,-283.3,-31.01Q-283.3,-32.11,-284.12,-32.11Q-284.88,-32.11,-284.88,-32.64Q-284.88,-33.89,-282.68,-33.89L-277.73,-33.89Q-276.24,-33.89,-276.24,-32.93Q-276.24,-32.11,-277.4,-32.11Q-278.45,-32.11,-279.03,-29.66L-281.52,-19.25L-266.45,-19.25L-264,-29.57Q-263.76,-30.53,-263.76,-31.01Q-263.76,-32.11,-264.58,-32.11Q-265.35,-32.11,-265.35,-32.64Q-265.35,-33.89,-263.14,-33.89L-258.2,-33.89Q-256.71,-33.89,-256.71,-32.93ZM-234.24,-22.61Q-234.24,-22.46,-234.32,-22.2Q-234.39,-21.94,-234.46,-21.6Q-234.53,-21.26,-234.58,-21.07L-238.56,-4.18Q-238.8,-3.07,-238.59,-2.42Q-238.37,-1.78,-237.84,-1.78Q-237.32,-1.78,-237.32,-1.34Q-237.32,-0.67,-238.01,-0.34Q-238.71,0,-239.43,0L-242.31,0Q-242.74,0,-242.91,-0.34Q-243.08,-0.67,-243,-1.27Q-242.93,-1.87,-242.81,-2.45Q-242.69,-3.02,-242.5,-3.77Q-242.31,-4.51,-242.26,-4.8L-242.5,-4.94Q-247.25,0.53,-251.52,0.53Q-253.54,0.53,-254.69,-0.48Q-255.84,-1.49,-255.84,-3.5Q-255.84,-4.66,-255.27,-7.06L-252.44,-18.96Q-252.29,-19.54,-252.29,-20.16Q-252.29,-21.55,-253.2,-21.55Q-253.68,-21.55,-253.68,-22.13Q-253.68,-23.33,-251.52,-23.33L-248.36,-23.33Q-247.73,-23.33,-247.73,-22.61Q-247.73,-22.42,-248.07,-21.07L-250.9,-9.17Q-251.81,-5.66,-251.81,-4.8Q-251.81,-3.41,-251.36,-2.76Q-250.9,-2.11,-249.46,-2.11Q-247.2,-2.11,-244.32,-5.16Q-241.44,-8.21,-241.01,-10.13L-238.95,-18.96Q-238.8,-19.54,-238.8,-20.16Q-238.8,-21.55,-239.72,-21.55Q-240.2,-21.55,-240.2,-22.13Q-240.2,-23.33,-238.04,-23.33L-234.87,-23.33Q-234.24,-23.33,-234.24,-22.61ZM-211.64,-22.61Q-211.64,-22.42,-211.97,-21.07L-215.81,-4.99Q-216.15,-3.65,-216.15,-3.07Q-216.15,-3.02,-216.15,-2.83Q-216.15,-2.64,-216.15,-2.62Q-216.15,-2.59,-216.15,-2.42Q-216.15,-2.26,-216.1,-2.23Q-216.05,-2.21,-216.03,-2.09Q-216,-1.97,-215.93,-1.94Q-215.86,-1.92,-215.76,-1.87Q-215.67,-1.82,-215.52,-1.8Q-215.38,-1.78,-215.24,-1.78Q-214.52,-1.78,-214.52,-1.25Q-214.52,-0.72,-215.02,-0.36Q-215.52,0,-216.44,0L-219.41,0Q-220.42,0,-220.42,-1.2Q-220.42,-1.73,-219.89,-4.08L-217.97,-12.1Q-218.36,-11.81,-219,-11.38Q-219.65,-10.94,-221.67,-10.25Q-223.68,-9.55,-225.65,-9.55Q-229.97,-9.55,-229.97,-13.01Q-229.97,-13.25,-229.78,-14.4L-228.68,-18.91Q-228.44,-19.82,-228.44,-20.3Q-228.44,-21.55,-229.35,-21.55Q-229.83,-21.55,-229.83,-22.13Q-229.83,-23.33,-227.67,-23.33L-224.45,-23.33Q-223.97,-23.33,-223.97,-22.61Q-223.97,-22.42,-224.31,-21.07L-225.65,-15.79Q-226.66,-11.76,-222.92,-11.76Q-220.9,-11.76,-219.22,-12.91Q-217.54,-14.06,-217.35,-14.88L-216.34,-19.01Q-216.2,-19.58,-216.2,-20.16Q-216.2,-21.55,-217.11,-21.55Q-217.59,-21.55,-217.59,-22.13Q-217.59,-23.33,-215.43,-23.33L-212.12,-23.33Q-211.64,-23.33,-211.64,-22.61ZM-188.74,-20.06Q-188.74,-17.33,-191.45,-15Q-194.16,-12.67,-199.3,-12L-204.48,-11.52Q-204.96,-10.42,-204.96,-7.92Q-204.96,-5.18,-203.74,-3.36Q-202.52,-1.54,-200.12,-1.54Q-196.61,-1.54,-193.92,-4.8Q-193.4,-5.47,-192.87,-5.47Q-191.96,-5.47,-191.96,-4.61Q-191.96,-4.18,-192.48,-3.55Q-196.18,0.86,-201.94,0.86Q-202.71,0.86,-203.5,0.74Q-204.29,0.62,-205.35,0.12Q-206.4,-0.38,-207.2,-1.18Q-207.99,-1.97,-208.56,-3.46Q-209.14,-4.94,-209.14,-6.91Q-209.14,-10.18,-207.99,-13.27Q-206.84,-16.37,-205.01,-18.62Q-202.95,-21.12,-200.09,-22.56Q-197.24,-24,-194.74,-24Q-188.74,-24,-188.74,-20.06M-192.77,-19.01Q-192.77,-22.08,-195.99,-22.08Q-198.05,-22.08,-199.88,-20.4Q-201.7,-18.72,-202.64,-16.85Q-203.57,-14.98,-204,-13.25Q-201.51,-13.39,-199.97,-13.58Q-196.08,-14.11,-194.43,-15.7Q-192.77,-17.28,-192.77,-19.01ZM-166.85,-19.25Q-166.85,-17.04,-168.44,-15.38Q-170.02,-13.73,-173.33,-12.34Q-179.24,-9.84,-180.39,-9.17Q-182.98,-7.68,-182.98,-5.04Q-182.98,-1.1,-178.61,-1.1Q-177.12,-1.1,-175.35,-2.14Q-173.57,-3.17,-172.32,-5.04Q-171.7,-5.95,-170.88,-5.95Q-170.55,-5.95,-170.24,-5.69Q-169.92,-5.42,-169.92,-5.04Q-169.92,-4.42,-170.31,-3.89Q-173.43,0.86,-179.91,0.86Q-183.12,0.86,-185.12,-0.43Q-187.11,-1.73,-187.11,-4.61Q-187.11,-8.45,-182.69,-10.37Q-181.49,-10.9,-179.21,-11.83Q-176.93,-12.77,-175.16,-13.63Q-171.17,-15.5,-171.17,-18.62Q-171.17,-22.13,-174.82,-22.13Q-177.56,-22.13,-179.28,-19.58Q-179.57,-19.2,-179.96,-18.55Q-180.34,-17.9,-180.56,-17.57Q-180.77,-17.23,-181.13,-16.94Q-181.49,-16.66,-181.83,-16.66Q-182.98,-16.66,-182.98,-18.72Q-182.98,-20.5,-181.64,-21.46Q-178.32,-23.95,-173.62,-23.95Q-166.85,-23.95,-166.85,-19.25ZM-143.09,-15.89Q-143.09,-12.1,-144.53,-8.74Q-145.97,-5.38,-148.32,-2.98Q-152.12,0.86,-157.35,0.86Q-158.6,0.86,-159.75,0.55Q-160.9,0.24,-162.15,-0.55Q-163.4,-1.34,-164.16,-3.07Q-164.93,-4.8,-164.93,-7.25Q-164.93,-10.99,-163.49,-14.38Q-162.05,-17.76,-159.7,-20.16Q-155.91,-24,-150.68,-24Q-149.43,-24,-148.28,-23.69Q-147.12,-23.38,-145.88,-22.58Q-144.63,-21.79,-143.86,-20.06Q-143.09,-18.34,-143.09,-15.89M-147.27,-15.46Q-147.27,-22.08,-151.97,-22.08Q-154.52,-22.08,-156.58,-19.87Q-158.64,-17.66,-159.7,-14.4Q-160.76,-11.14,-160.76,-7.68Q-160.76,-6.77,-160.59,-5.78Q-160.42,-4.8,-159.96,-3.65Q-159.51,-2.5,-158.5,-1.78Q-157.49,-1.06,-156.05,-1.06Q-153.51,-1.06,-151.44,-3.26Q-149.38,-5.47,-148.32,-8.74Q-147.27,-12,-147.27,-15.46ZM-107.76,-22.66Q-107.76,-22.27,-107.88,-21.7Q-108,-21.12,-108.22,-20.33Q-108.44,-19.54,-108.53,-19.1L-111.89,-4.99Q-112.23,-3.65,-112.23,-3.12Q-112.23,-2.35,-111.94,-2.06Q-111.65,-1.78,-110.88,-1.78Q-110.16,-1.78,-110.16,-1.25Q-110.16,0,-112.52,0L-115.49,0Q-116.5,0,-116.5,-1.2Q-116.5,-1.73,-115.97,-4.08L-112.32,-19.78Q-112.18,-20.35,-112.18,-20.93Q-112.18,-21.5,-113.38,-21.5Q-113.52,-21.5,-113.57,-21.5L-116.12,-21.5Q-117.51,-21.5,-118.18,-20.95Q-118.85,-20.4,-119.28,-18.48Q-120.44,-13.49,-120.68,-12.62Q-124.32,0.24,-129.8,0.24Q-130.56,0.24,-131.24,-0.41Q-131.91,-1.06,-131.91,-2.4Q-131.91,-3.41,-131.55,-4.1Q-131.19,-4.8,-130.61,-4.8Q-129.84,-4.8,-129.15,-4.39Q-128.45,-3.98,-127.59,-3.98Q-124.9,-3.98,-122.36,-13.1Q-121.35,-16.8,-121.35,-18.96Q-121.35,-19.44,-121.42,-19.82Q-121.49,-20.21,-121.59,-20.47Q-121.68,-20.74,-121.85,-20.93Q-122.02,-21.12,-122.14,-21.22Q-122.26,-21.31,-122.45,-21.38Q-122.64,-21.46,-122.76,-21.48Q-122.88,-21.5,-123.03,-21.5L-123.17,-21.55Q-123.8,-21.7,-123.7,-22.13Q-123.56,-23.33,-121.59,-23.33L-108.44,-23.33Q-107.76,-23.33,-107.76,-22.66ZM-82.37,-22.61Q-82.37,-22.46,-82.44,-22.2Q-82.52,-21.94,-82.59,-21.6Q-82.66,-21.26,-82.71,-21.07L-86.69,-4.18Q-86.93,-3.07,-86.72,-2.42Q-86.5,-1.78,-85.97,-1.78Q-85.44,-1.78,-85.44,-1.34Q-85.44,-0.67,-86.14,-0.34Q-86.84,0,-87.56,0L-90.44,0Q-90.87,0,-91.04,-0.34Q-91.2,-0.67,-91.13,-1.27Q-91.06,-1.87,-90.94,-2.45Q-90.82,-3.02,-90.63,-3.77Q-90.44,-4.51,-90.39,-4.8L-90.63,-4.94Q-95.38,0.53,-99.65,0.53Q-101.67,0.53,-102.82,-0.48Q-103.97,-1.49,-103.97,-3.5Q-103.97,-4.66,-103.4,-7.06L-100.56,-18.96Q-100.42,-19.54,-100.42,-20.16Q-100.42,-21.55,-101.33,-21.55Q-101.81,-21.55,-101.81,-22.13Q-101.81,-23.33,-99.65,-23.33L-96.48,-23.33Q-95.86,-23.33,-95.86,-22.61Q-95.86,-22.42,-96.2,-21.07L-99.03,-9.17Q-99.94,-5.66,-99.94,-4.8Q-99.94,-3.41,-99.48,-2.76Q-99.03,-2.11,-97.59,-2.11Q-95.33,-2.11,-92.45,-5.16Q-89.57,-8.21,-89.14,-10.13L-87.08,-18.96Q-86.93,-19.54,-86.93,-20.16Q-86.93,-21.55,-87.84,-21.55Q-88.32,-21.55,-88.32,-22.13Q-88.32,-23.33,-86.16,-23.33L-83,-23.33Q-82.37,-23.33,-82.37,-22.61ZM-45.17,-22.46Q-45.17,-22.27,-45.51,-20.93L-49.3,-4.99Q-49.64,-3.65,-49.64,-3.07Q-49.64,-3.02,-49.64,-2.83Q-49.64,-2.64,-49.64,-2.62Q-49.64,-2.59,-49.64,-2.42Q-49.64,-2.26,-49.59,-2.23Q-49.54,-2.21,-49.52,-2.09Q-49.49,-1.97,-49.42,-1.94Q-49.35,-1.92,-49.25,-1.87Q-49.16,-1.82,-49.01,-1.8Q-48.87,-1.78,-48.72,-1.78Q-48,-1.78,-48,-1.25Q-48,-0.72,-48.51,-0.36Q-49.01,0,-49.92,0L-52.71,0Q-53.72,0,-53.72,-1.2Q-53.72,-1.68,-52.71,-5.04L-52.95,-5.18Q-54.44,-2.98,-56.72,-1.2Q-59,0.58,-61.68,0.58Q-63.6,0.58,-64.59,-0.5Q-65.57,-1.58,-65.57,-3.36L-65.43,-5.38Q-69.84,0.58,-74.6,0.58Q-78.72,0.58,-78.72,-3.31Q-78.72,-4.94,-78.2,-7.06L-75.32,-19.1Q-75.17,-19.68,-75.17,-20.16Q-75.17,-21.55,-76.08,-21.55Q-76.56,-21.55,-76.56,-22.13Q-76.56,-23.33,-74.4,-23.33L-71.09,-23.33Q-70.61,-23.33,-70.61,-22.61Q-70.61,-22.42,-70.95,-21.07L-73.83,-9.17Q-74.84,-5.14,-74.84,-4.46Q-74.84,-2.21,-72.68,-2.21Q-70.61,-2.21,-68.02,-4.66Q-65.43,-7.1,-64.8,-9.79L-62.6,-19.1Q-62.45,-19.68,-62.45,-20.16Q-62.45,-21.55,-63.36,-21.55Q-63.84,-21.55,-63.84,-22.13Q-63.84,-23.33,-61.68,-23.33L-58.37,-23.33Q-57.89,-23.33,-57.89,-22.61Q-57.89,-22.42,-58.23,-21.07L-61.11,-9.07Q-61.78,-6.38,-61.78,-4.61Q-61.78,-2.21,-59.48,-2.21Q-57.41,-2.21,-55.01,-4.97Q-52.61,-7.73,-52.18,-9.6L-49.83,-19.1L-49.68,-20.02L-49.73,-20.02Q-49.73,-21.41,-50.64,-21.41Q-51.12,-21.41,-51.12,-21.98Q-51.12,-23.18,-48.96,-23.18L-45.65,-23.18Q-45.17,-23.18,-45.17,-22.46ZM-20.4,-19.3L-23.81,-4.99Q-24.15,-3.65,-24.15,-3.07Q-24.15,-3.02,-24.15,-2.83Q-24.15,-2.64,-24.15,-2.62Q-24.15,-2.59,-24.15,-2.42Q-24.15,-2.26,-24.1,-2.23Q-24.05,-2.21,-24.03,-2.09Q-24,-1.97,-23.93,-1.94Q-23.86,-1.92,-23.76,-1.87Q-23.67,-1.82,-23.52,-1.8Q-23.38,-1.78,-23.24,-1.78Q-22.52,-1.78,-22.52,-1.25Q-22.52,-0.72,-23.02,-0.36Q-23.52,0,-24.44,0L-27.41,0Q-28.42,0,-28.42,-1.2Q-28.42,-1.73,-27.89,-4.08L-26.07,-11.66L-35.67,-11.66L-37.3,-4.99Q-37.68,-3.36,-37.68,-2.88Q-37.68,-1.78,-36.77,-1.78Q-36.24,-1.78,-36.24,-1.25Q-36.24,0,-38.4,0L-42.58,0Q-43.97,0,-43.97,-1.2Q-43.97,-1.78,-43.16,-1.78Q-42.44,-1.78,-42.05,-2.28Q-41.67,-2.78,-41.38,-4.08L-37.83,-19.15Q-37.59,-20.06,-37.71,-20.59Q-37.83,-21.12,-38.07,-21.36Q-38.31,-21.6,-38.6,-21.6Q-39.08,-21.6,-39.08,-22.18Q-39.08,-23.33,-36.87,-23.33L-33.99,-23.33Q-33.56,-23.33,-33.36,-23.06Q-33.17,-22.8,-33.24,-22.25Q-33.32,-21.7,-33.36,-21.34Q-33.41,-20.98,-33.63,-20.21Q-33.84,-19.44,-33.89,-19.3L-35.24,-13.49L-25.64,-13.49L-24.34,-19.15Q-24.1,-20.06,-24.22,-20.59Q-24.34,-21.12,-24.58,-21.36Q-24.82,-21.6,-25.11,-21.6Q-25.59,-21.6,-25.59,-22.18Q-25.59,-23.33,-23.38,-23.33L-20.5,-23.33Q-20.07,-23.33,-19.88,-23.06Q-19.68,-22.8,-19.76,-22.25Q-19.83,-21.7,-19.88,-21.34Q-19.92,-20.98,-20.14,-20.21Q-20.36,-19.44,-20.4,-19.3ZM3.21,-20.06Q3.21,-17.33,0.5,-15Q-2.21,-12.67,-7.35,-12L-12.53,-11.52Q-13.01,-10.42,-13.01,-7.92Q-13.01,-5.18,-11.79,-3.36Q-10.56,-1.54,-8.16,-1.54Q-4.66,-1.54,-1.97,-4.8Q-1.44,-5.47,-0.92,-5.47Q0,-5.47,0,-4.61Q0,-4.18,-0.53,-3.55Q-4.23,0.86,-9.99,0.86Q-10.76,0.86,-11.55,0.74Q-12.34,0.62,-13.4,0.12Q-14.45,-0.38,-15.24,-1.18Q-16.04,-1.97,-16.61,-3.46Q-17.19,-4.94,-17.19,-6.91Q-17.19,-10.18,-16.04,-13.27Q-14.88,-16.37,-13.06,-18.62Q-11,-21.12,-8.14,-22.56Q-5.28,-24,-2.79,-24Q3.21,-24,3.21,-20.06M-0.82,-19.01Q-0.82,-22.08,-4.04,-22.08Q-6.1,-22.08,-7.92,-20.4Q-9.75,-18.72,-10.68,-16.85Q-11.62,-14.98,-12.05,-13.25Q-9.56,-13.39,-8.02,-13.58Q-4.13,-14.11,-2.48,-15.7Q-0.82,-17.28,-0.82,-19.01ZM25.1,-19.25Q25.1,-17.04,23.52,-15.38Q21.93,-13.73,18.62,-12.34Q12.72,-9.84,11.56,-9.17Q8.97,-7.68,8.97,-5.04Q8.97,-1.1,13.34,-1.1Q14.83,-1.1,16.6,-2.14Q18.38,-3.17,19.63,-5.04Q20.25,-5.95,21.07,-5.95Q21.4,-5.95,21.72,-5.69Q22.03,-5.42,22.03,-5.04Q22.03,-4.42,21.64,-3.89Q18.52,0.86,12.04,0.86Q8.83,0.86,6.84,-0.43Q4.84,-1.73,4.84,-4.61Q4.84,-8.45,9.26,-10.37Q10.46,-10.9,12.74,-11.83Q15.02,-12.77,16.8,-13.63Q20.78,-15.5,20.78,-18.62Q20.78,-22.13,17.13,-22.13Q14.4,-22.13,12.67,-19.58Q12.38,-19.2,12,-18.55Q11.61,-17.9,11.4,-17.57Q11.18,-17.23,10.82,-16.94Q10.46,-16.66,10.12,-16.66Q8.97,-16.66,8.97,-18.72Q8.97,-20.5,10.32,-21.46Q13.63,-23.95,18.33,-23.95Q25.1,-23.95,25.1,-19.25ZM48.86,-15.89Q48.86,-12.1,47.42,-8.74Q45.98,-5.38,43.63,-2.98Q39.84,0.86,34.6,0.86Q33.36,0.86,32.2,0.55Q31.05,0.24,29.8,-0.55Q28.56,-1.34,27.79,-3.07Q27.02,-4.8,27.02,-7.25Q27.02,-10.99,28.46,-14.38Q29.9,-17.76,32.25,-20.16Q36.04,-24,41.28,-24Q42.52,-24,43.68,-23.69Q44.83,-23.38,46.08,-22.58Q47.32,-21.79,48.09,-20.06Q48.86,-18.34,48.86,-15.89M44.68,-15.46Q44.68,-22.08,39.98,-22.08Q37.44,-22.08,35.37,-19.87Q33.31,-17.66,32.25,-14.4Q31.2,-11.14,31.2,-7.68Q31.2,-6.77,31.36,-5.78Q31.53,-4.8,31.99,-3.65Q32.44,-2.5,33.45,-1.78Q34.46,-1.06,35.9,-1.06Q38.44,-1.06,40.51,-3.26Q42.57,-5.47,43.63,-8.74Q44.68,-12,44.68,-15.46ZM57.88,-2.59Q57.88,-1.2,57.07,-0.41Q56.25,0.38,55.1,0.38Q54.14,0.38,53.44,-0.19Q52.75,-0.77,52.75,-1.92Q52.75,-3.41,53.59,-4.2Q54.43,-4.99,55.53,-4.99Q56.59,-4.99,57.24,-4.32Q57.88,-3.65,57.88,-2.59ZM105.64,-22.85Q105.64,-16.27,102.5,-10.2Q99.36,-4.13,94.03,-1.25Q90.09,0.86,85.87,0.86Q81.12,0.86,78.38,-2.28Q75.64,-5.42,75.64,-11.14Q75.64,-17.71,78.79,-23.78Q81.93,-29.86,87.26,-32.74Q91.2,-34.85,95.42,-34.85Q100.17,-34.85,102.91,-31.75Q105.64,-28.66,105.64,-22.85M101.04,-21.22Q101.04,-27.22,98.9,-29.81Q96.76,-32.4,93.5,-32.4Q89.8,-32.4,86.78,-29.76Q83.66,-27.07,81.96,-22.3Q80.25,-17.52,80.25,-12.77Q80.25,-6.77,82.36,-4.18Q84.48,-1.58,87.84,-1.58Q91.48,-1.58,94.51,-4.22Q97.63,-6.91,99.33,-11.69Q101.04,-16.46,101.04,-21.22ZM129.6,-19.92Q129.6,-18.38,129.12,-16.13L126.52,-4.99Q126.19,-3.41,126.19,-3.07Q126.19,-3.02,126.19,-2.83Q126.19,-2.64,126.19,-2.62Q126.19,-2.59,126.19,-2.42Q126.19,-2.26,126.24,-2.23Q126.28,-2.21,126.31,-2.09Q126.33,-1.97,126.4,-1.94Q126.48,-1.92,126.57,-1.87Q126.67,-1.82,126.81,-1.8Q126.96,-1.78,127.1,-1.78Q127.82,-1.78,127.82,-1.25Q127.82,-0.72,127.32,-0.36Q126.81,0,125.9,0L122.92,0Q121.92,0,121.92,-1.2Q121.92,-1.73,122.44,-4.08L124.84,-14.06Q125.56,-17.04,125.56,-18.38Q125.56,-20.64,123.55,-20.64Q121.1,-20.64,118.29,-17.88Q115.48,-15.12,114.76,-12L112.94,-4.32Q112.7,-3.26,112.7,-2.88Q112.7,-1.78,113.61,-1.78Q114.14,-1.78,114.14,-1.25Q114.14,0,111.98,0L107.76,0Q106.36,0,106.36,-1.2Q106.36,-1.78,107.18,-1.78Q108.43,-1.78,108.96,-4.03L112.51,-19.06Q112.75,-20.16,112.75,-20.74Q112.75,-21.55,112.03,-21.55Q111.4,-21.55,111.4,-22.13Q111.4,-22.7,112.05,-23.02Q112.7,-23.33,113.52,-23.33L116.01,-23.33Q116.68,-23.33,116.95,-23.06Q117.21,-22.8,117.21,-22.13Q117.21,-21.89,117.04,-21.17Q116.88,-20.45,116.61,-19.49Q116.35,-18.53,116.25,-18L116.44,-18Q118.7,-20.54,121.34,-22.13Q123.98,-23.71,126,-23.71Q129.6,-23.71,129.6,-19.92ZM145.82,-33.36Q145.82,-33.12,145.39,-31.3L139.05,-4.32Q138.81,-3.26,138.81,-2.88Q138.81,-1.78,139.72,-1.78Q140.25,-1.78,140.25,-1.25Q140.25,0,138.09,0L133.87,0Q132.48,0,132.48,-1.2Q132.48,-1.78,133.29,-1.78Q134.49,-1.78,135.07,-4.08L141.26,-30.29Q141.45,-31.25,141.45,-31.82Q141.45,-32.64,140.73,-32.64Q140.11,-32.64,140.11,-33.22Q140.11,-33.79,140.76,-34.1Q141.4,-34.42,142.22,-34.42L144.72,-34.42Q145.39,-34.42,145.6,-34.18Q145.82,-33.94,145.82,-33.36ZM169.2,-22.61Q169.2,-22.42,168.86,-21.07L164.64,-4.08Q162.57,4.08,159.84,7.2Q157.68,9.65,155.11,10.68Q152.54,11.71,150.33,11.71Q146.78,11.71,144.86,10.58Q142.94,9.46,142.94,7.3Q142.94,5.95,143.52,5.04Q144.09,4.13,145.05,4.13Q145.24,4.13,145.44,4.2Q145.63,4.27,145.8,4.44Q145.96,4.61,146.06,4.78Q146.16,4.94,146.32,5.26Q146.49,5.57,146.56,5.78Q146.64,6,146.83,6.48Q147.02,6.96,147.12,7.2Q147.6,8.35,148.6,9.07Q149.61,9.79,150.81,9.79Q153.21,9.79,154.56,8.88Q155.9,7.97,157.29,6Q157.92,5.09,158.52,3.58Q159.12,2.06,159.43,1.06Q159.74,0.05,160.32,-2.16Q160.89,-4.37,160.99,-4.75L160.89,-4.85Q155.95,0.53,151.87,0.53Q147.55,0.53,147.55,-3.36Q147.55,-4.66,148.12,-7.06L151,-18.96Q151.15,-19.54,151.15,-20.16Q151.15,-21.55,150.24,-21.55Q149.76,-21.55,149.76,-22.13Q149.76,-23.33,151.92,-23.33L155.23,-23.33Q155.71,-23.33,155.71,-22.61Q155.71,-22.32,155.42,-21.07L152.49,-9.17Q151.63,-5.86,151.63,-4.56Q151.63,-3.36,152.13,-2.74Q152.64,-2.11,154.08,-2.11Q156.24,-2.11,158.97,-5.04Q161.71,-7.97,162.28,-10.13L164.49,-18.96Q164.64,-19.54,164.64,-20.16Q164.64,-21.55,163.72,-21.55Q163.24,-21.55,163.24,-22.13Q163.24,-23.33,165.4,-23.33L168.72,-23.33Q169.2,-23.33,169.2,-22.61ZM200.06,-26.21Q200.06,-24.53,199.2,-22.58Q198.33,-20.64,196.72,-18.77Q195.12,-16.9,192.31,-15.67Q189.5,-14.45,186.04,-14.45Q184.27,-14.45,182.71,-14.74Q181.15,-15.02,180.48,-15.31L179.76,-15.6L177.07,-4.42Q176.83,-3.22,176.83,-2.88Q176.83,-1.78,177.64,-1.78Q178.41,-1.78,178.41,-1.25Q178.41,0,176.2,0L171.26,0Q169.77,0,169.77,-0.96Q169.77,-1.78,170.92,-1.78Q171.98,-1.78,172.6,-4.32L178.6,-29.57Q178.84,-30.43,178.84,-31.01Q178.84,-32.11,178.03,-32.11Q177.26,-32.11,177.26,-32.64Q177.26,-33.89,179.47,-33.89L189.79,-33.89Q191.28,-33.89,192.4,-33.79Q193.53,-33.7,195.09,-33.26Q196.65,-32.83,197.64,-32.06Q198.62,-31.3,199.34,-29.78Q200.06,-28.27,200.06,-26.21M195.16,-26.3Q195.16,-27.98,194.59,-29.11Q194.01,-30.24,192.93,-30.74Q191.85,-31.25,190.87,-31.42Q189.88,-31.58,188.54,-31.58L184.94,-31.58Q184.41,-31.58,184.15,-31.51Q183.88,-31.44,183.57,-30.98Q183.26,-30.53,183.07,-29.57L180.62,-18.67Q180.43,-17.86,181.84,-17.21Q183.26,-16.56,185.56,-16.56Q190.22,-16.56,192.69,-19.2Q195.16,-21.84,195.16,-26.3ZM212.35,-30.62Q212.35,-29.38,211.48,-28.44Q210.62,-27.5,209.52,-27.5Q208.65,-27.5,208.05,-28.13Q207.45,-28.75,207.45,-29.62Q207.45,-31.01,208.32,-31.94Q209.18,-32.88,210.33,-32.88Q211.24,-32.88,211.8,-32.23Q212.35,-31.58,212.35,-30.62M210.14,-22.27Q210.14,-21.98,209.71,-20.21L205.92,-4.32Q205.68,-3.26,205.68,-2.88Q205.68,-1.78,206.59,-1.78Q207.12,-1.78,207.12,-1.25Q207.12,0,204.96,0L200.78,0Q199.39,0,199.39,-1.2Q199.39,-1.78,200.2,-1.78Q201.45,-1.78,201.98,-4.13L205.58,-19.2Q205.77,-20.11,205.77,-20.74Q205.77,-21.55,205.05,-21.55Q204.43,-21.55,204.43,-22.13Q204.43,-22.7,205.08,-23.02Q205.72,-23.33,206.54,-23.33L209.04,-23.33Q209.71,-23.33,209.92,-23.09Q210.14,-22.85,210.14,-22.27ZM232.65,-22.8Q232.65,-22.22,231.55,-20.74L216.72,-1.78L219.6,-1.78Q224.49,-1.78,226.27,-3.22Q226.89,-3.7,227.56,-4.56Q228.24,-5.42,228.69,-5.95Q229.15,-6.48,229.44,-6.48Q230.16,-6.48,230.16,-5.62Q230.16,-4.18,228.76,-1.49Q227.9,0.14,226.41,0.14Q225.74,0.14,224.42,0.07Q223.1,0,221.66,0L212.97,0L212.73,0Q212.44,0,212.37,0Q212.3,0,212.11,-0.05Q211.92,-0.1,211.84,-0.24Q211.77,-0.38,211.77,-0.58Q211.77,-0.91,211.89,-1.22Q212.01,-1.54,212.11,-1.68Q212.2,-1.82,212.56,-2.26Q212.92,-2.69,213.12,-2.88L227.8,-21.55L224.06,-21.55Q221.23,-21.55,219.4,-20.35Q218.68,-19.87,217.87,-18.58Q217.05,-17.28,216.52,-17.28Q216,-17.28,216,-18.34Q216,-19.25,216.38,-20.64Q216.76,-22.27,217.24,-22.8Q217.72,-23.33,218.68,-23.33L231.16,-23.33Q232.12,-23.33,232.39,-23.26Q232.65,-23.18,232.65,-22.8ZM254.16,-22.8Q254.16,-22.22,253.05,-20.74L238.22,-1.78L241.1,-1.78Q246,-1.78,247.77,-3.22Q248.4,-3.7,249.07,-4.56Q249.74,-5.42,250.2,-5.95Q250.65,-6.48,250.94,-6.48Q251.66,-6.48,251.66,-5.62Q251.66,-4.18,250.27,-1.49Q249.4,0.14,247.92,0.14Q247.24,0.14,245.92,0.07Q244.6,0,243.16,0L234.48,0L234.24,0Q233.95,0,233.88,0Q233.8,0,233.61,-0.05Q233.42,-0.1,233.35,-0.24Q233.28,-0.38,233.28,-0.58Q233.28,-0.91,233.4,-1.22Q233.52,-1.54,233.61,-1.68Q233.71,-1.82,234.07,-2.26Q234.43,-2.69,234.62,-2.88L249.31,-21.55L245.56,-21.55Q242.73,-21.55,240.91,-20.35Q240.19,-19.87,239.37,-18.58Q238.56,-17.28,238.03,-17.28Q237.5,-17.28,237.5,-18.34Q237.5,-19.25,237.88,-20.64Q238.27,-22.27,238.75,-22.8Q239.23,-23.33,240.19,-23.33L252.67,-23.33Q253.63,-23.33,253.89,-23.26Q254.16,-23.18,254.16,-22.8ZM278.97,-22.9Q278.97,-22.75,278.44,-20.64L274.36,-4.08Q274.27,-3.74,274.27,-3.07Q274.27,-1.82,275.42,-1.82Q275.95,-1.82,275.95,-1.34Q275.95,-0.53,274.48,0.17Q273.02,0.86,271.96,0.86Q270.33,0.86,270.33,-1.1Q270.33,-2.06,270.96,-4.66L270.81,-4.7Q269.18,-2.21,266.78,-0.67Q264.38,0.86,261.88,0.86Q259.53,0.86,257.92,-0.82Q256.32,-2.5,256.32,-5.86Q256.32,-8.93,257.37,-12.17Q258.43,-15.41,260.06,-17.66Q264.57,-24,270.62,-24Q272.49,-24,273.52,-23.59Q274.56,-23.18,275.56,-22.22Q277.15,-23.62,278.2,-23.62Q278.97,-23.62,278.97,-22.9M273.74,-18.82Q273.74,-20.4,272.85,-21.31Q271.96,-22.22,270.28,-22.22Q267.21,-22.22,264.86,-19.75Q262.51,-17.28,261.48,-13.99Q260.44,-10.7,260.44,-7.39Q260.44,-1.92,264.19,-1.92Q266.25,-1.92,268.63,-4.44Q271,-6.96,271.58,-9.12L272.92,-14.26Q273.74,-17.28,273.74,-18.82ZM288.19,-2.59Q288.19,-1.2,287.37,-0.41Q286.56,0.38,285.4,0.38Q284.44,0.38,283.75,-0.19Q283.05,-0.77,283.05,-1.92Q283.05,-3.41,283.89,-4.2Q284.73,-4.99,285.84,-4.99Q286.89,-4.99,287.54,-4.32Q288.19,-3.65,288.19,-2.59Z" transform="matrix(0.6,0,0,0.6,353.34,163.3591)" style="-webkit-tap-highlight-color: rgba(0, 0, 0, 0);" stroke-width="1"></path></svg>